# Created by FreeCAD <http://www.freecadweb.org>
v 7.000000 -1.000000 -2.000000
v 7.000000 -1.000000 3.000000
v 7.000000 0.000000 -2.000000
v 7.000000 0.000000 3.000000
v 9.000000 -1.000000 3.000000
v 9.000000 -1.000000 -2.000000
v 9.000000 0.000000 -2.000000
v 9.000000 0.000000 3.000000
v 16.000000 -1.000000 -2.000000
v 16.000000 -1.000000 3.000000
v 16.000000 0.000000 -2.000000
v 16.000000 0.000000 3.000000
v 18.000000 -1.000000 3.000000
v 18.000000 -1.000000 -2.000000
v 18.000000 0.000000 -2.000000
v 18.000000 0.000000 3.000000
v 22.000000 -1.000000 -2.000000
v 22.000000 -1.000000 3.000000
v 22.000000 0.000000 -2.000000
v 22.000000 0.000000 3.000000
v 24.000000 -1.000000 3.000000
v 24.000000 -1.000000 -2.000000
v 24.000000 0.000000 -2.000000
v 24.000000 0.000000 3.000000
v 25.000000 -1.000000 -2.000000
v 25.000000 -1.000000 3.000000
v 25.000000 0.000000 -2.000000
v 25.000000 0.000000 3.000000
v 27.000000 -1.000000 3.000000
v 27.000000 -1.000000 -2.000000
v 27.000000 0.000000 -2.000000
v 27.000000 0.000000 3.000000
v 19.000000 -1.000000 -2.000000
v 19.000000 -1.000000 3.000000
v 19.000000 0.000000 -2.000000
v 19.000000 0.000000 3.000000
v 21.000000 -1.000000 3.000000
v 21.000000 -1.000000 -2.000000
v 21.000000 0.000000 -2.000000
v 21.000000 0.000000 3.000000
v 0.000000 0.000000 0.000000
v 0.000000 0.000000 4.000000
v 0.000000 10.000000 0.000000
v 0.000000 10.000000 4.000000
v 31.000000 0.000000 4.000000
v 31.000000 0.000000 0.000000
v 31.000000 10.000000 0.000000
v 31.000000 10.000000 4.000000
v 13.000000 -1.000000 -2.000000
v 13.000000 -1.000000 3.000000
v 13.000000 0.000000 -2.000000
v 13.000000 0.000000 3.000000
v 15.000000 -1.000000 3.000000
v 15.000000 -1.000000 -2.000000
v 15.000000 0.000000 -2.000000
v 15.000000 0.000000 3.000000
v 28.000000 -1.000000 -2.000000
v 28.000000 -1.000000 3.000000
v 28.000000 0.000000 -2.000000
v 28.000000 0.000000 3.000000
v 30.000000 -1.000000 3.000000
v 30.000000 -1.000000 -2.000000
v 30.000000 0.000000 -2.000000
v 30.000000 0.000000 3.000000
v 10.000000 -1.000000 -2.000000
v 10.000000 -1.000000 3.000000
v 10.000000 0.000000 -2.000000
v 10.000000 0.000000 3.000000
v 12.000000 -1.000000 3.000000
v 12.000000 -1.000000 -2.000000
v 12.000000 0.000000 -2.000000
v 12.000000 0.000000 3.000000
v 4.000000 -1.000000 -2.000000
v 4.000000 -1.000000 3.000000
v 4.000000 0.000000 -2.000000
v 4.000000 0.000000 3.000000
v 6.000000 -1.000000 3.000000
v 6.000000 -1.000000 -2.000000
v 6.000000 0.000000 -2.000000
v 6.000000 0.000000 3.000000
v 4.000000 10.000000 -2.000000
v 4.000000 10.000000 3.000000
v 4.000000 11.000000 -2.000000
v 4.000000 11.000000 3.000000
v 6.000000 10.000000 3.000000
v 6.000000 10.000000 -2.000000
v 6.000000 11.000000 -2.000000
v 6.000000 11.000000 3.000000
v 10.000000 10.000000 -2.000000
v 10.000000 10.000000 3.000000
v 10.000000 11.000000 -2.000000
v 10.000000 11.000000 3.000000
v 12.000000 10.000000 3.000000
v 12.000000 10.000000 -2.000000
v 12.000000 11.000000 -2.000000
v 12.000000 11.000000 3.000000
v 1.000000 10.000000 -2.000000
v 1.000000 10.000000 3.000000
v 1.000000 11.000000 -2.000000
v 1.000000 11.000000 3.000000
v 3.000000 10.000000 3.000000
v 3.000000 10.000000 -2.000000
v 3.000000 11.000000 -2.000000
v 3.000000 11.000000 3.000000
v 7.000000 10.000000 -2.000000
v 7.000000 10.000000 3.000000
v 7.000000 11.000000 -2.000000
v 7.000000 11.000000 3.000000
v 9.000000 10.000000 3.000000
v 9.000000 10.000000 -2.000000
v 9.000000 11.000000 -2.000000
v 9.000000 11.000000 3.000000
v 19.000000 10.000000 -2.000000
v 19.000000 10.000000 3.000000
v 19.000000 11.000000 -2.000000
v 19.000000 11.000000 3.000000
v 21.000000 10.000000 3.000000
v 21.000000 10.000000 -2.000000
v 21.000000 11.000000 -2.000000
v 21.000000 11.000000 3.000000
v 28.000000 10.000000 -2.000000
v 28.000000 10.000000 3.000000
v 28.000000 11.000000 -2.000000
v 28.000000 11.000000 3.000000
v 30.000000 10.000000 3.000000
v 30.000000 10.000000 -2.000000
v 30.000000 11.000000 -2.000000
v 30.000000 11.000000 3.000000
v 25.000000 10.000000 -2.000000
v 25.000000 10.000000 3.000000
v 25.000000 11.000000 -2.000000
v 25.000000 11.000000 3.000000
v 27.000000 10.000000 3.000000
v 27.000000 10.000000 -2.000000
v 27.000000 11.000000 -2.000000
v 27.000000 11.000000 3.000000
v 22.000000 10.000000 -2.000000
v 22.000000 10.000000 3.000000
v 22.000000 11.000000 -2.000000
v 22.000000 11.000000 3.000000
v 24.000000 10.000000 3.000000
v 24.000000 10.000000 -2.000000
v 24.000000 11.000000 -2.000000
v 24.000000 11.000000 3.000000
v 16.000000 10.000000 -2.000000
v 16.000000 10.000000 3.000000
v 16.000000 11.000000 -2.000000
v 16.000000 11.000000 3.000000
v 18.000000 10.000000 3.000000
v 18.000000 10.000000 -2.000000
v 18.000000 11.000000 -2.000000
v 18.000000 11.000000 3.000000
v 13.000000 10.000000 -2.000000
v 13.000000 10.000000 3.000000
v 13.000000 11.000000 -2.000000
v 13.000000 11.000000 3.000000
v 15.000000 10.000000 3.000000
v 15.000000 10.000000 -2.000000
v 15.000000 11.000000 -2.000000
v 15.000000 11.000000 3.000000
v 1.000000 -1.000000 -2.000000
v 1.000000 -1.000000 3.000000
v 1.000000 0.000000 -2.000000
v 1.000000 0.000000 3.000000
v 3.000000 -1.000000 3.000000
v 3.000000 -1.000000 -2.000000
v 3.000000 0.000000 -2.000000
v 3.000000 0.000000 3.000000
vn -1.000000 0.000000 0.000000
vn -1.000000 0.000000 0.000000
vn 1.000000 0.000000 0.000000
vn 1.000000 -0.000000 0.000000
vn 0.000000 -1.000000 0.000000
vn 0.000000 -1.000000 0.000000
vn 0.000000 1.000000 0.000000
vn 0.000000 1.000000 0.000000
vn 0.000000 0.000000 -1.000000
vn 0.000000 0.000000 -1.000000
vn 0.000000 0.000000 1.000000
vn 0.000000 0.000000 1.000000
vn -1.000000 0.000000 0.000000
vn -1.000000 0.000000 0.000000
vn 1.000000 0.000000 0.000000
vn 1.000000 -0.000000 0.000000
vn 0.000000 -1.000000 0.000000
vn 0.000000 -1.000000 0.000000
vn 0.000000 1.000000 0.000000
vn 0.000000 1.000000 0.000000
vn 0.000000 0.000000 -1.000000
vn 0.000000 0.000000 -1.000000
vn 0.000000 0.000000 1.000000
vn 0.000000 0.000000 1.000000
vn -1.000000 0.000000 0.000000
vn -1.000000 0.000000 0.000000
vn 1.000000 0.000000 0.000000
vn 1.000000 -0.000000 0.000000
vn 0.000000 -1.000000 0.000000
vn 0.000000 -1.000000 0.000000
vn 0.000000 1.000000 0.000000
vn 0.000000 1.000000 0.000000
vn 0.000000 0.000000 -1.000000
vn 0.000000 0.000000 -1.000000
vn 0.000000 0.000000 1.000000
vn 0.000000 0.000000 1.000000
vn -1.000000 0.000000 0.000000
vn -1.000000 0.000000 0.000000
vn 1.000000 0.000000 0.000000
vn 1.000000 -0.000000 0.000000
vn 0.000000 -1.000000 0.000000
vn 0.000000 -1.000000 0.000000
vn 0.000000 1.000000 0.000000
vn 0.000000 1.000000 0.000000
vn 0.000000 0.000000 -1.000000
vn 0.000000 0.000000 -1.000000
vn 0.000000 0.000000 1.000000
vn 0.000000 0.000000 1.000000
vn -1.000000 0.000000 0.000000
vn -1.000000 0.000000 0.000000
vn 1.000000 0.000000 0.000000
vn 1.000000 -0.000000 0.000000
vn 0.000000 -1.000000 0.000000
vn 0.000000 -1.000000 0.000000
vn 0.000000 1.000000 0.000000
vn 0.000000 1.000000 0.000000
vn 0.000000 0.000000 -1.000000
vn 0.000000 0.000000 -1.000000
vn 0.000000 0.000000 1.000000
vn 0.000000 0.000000 1.000000
vn -1.000000 0.000000 0.000000
vn -1.000000 0.000000 0.000000
vn 1.000000 0.000000 0.000000
vn 1.000000 -0.000000 0.000000
vn 0.000000 -1.000000 0.000000
vn 0.000000 -1.000000 0.000000
vn 0.000000 1.000000 0.000000
vn 0.000000 1.000000 0.000000
vn 0.000000 0.000000 -1.000000
vn 0.000000 0.000000 -1.000000
vn 0.000000 0.000000 1.000000
vn 0.000000 0.000000 1.000000
vn -1.000000 0.000000 0.000000
vn -1.000000 0.000000 0.000000
vn 1.000000 0.000000 0.000000
vn 1.000000 -0.000000 0.000000
vn 0.000000 -1.000000 0.000000
vn 0.000000 -1.000000 0.000000
vn 0.000000 1.000000 0.000000
vn 0.000000 1.000000 0.000000
vn 0.000000 0.000000 -1.000000
vn 0.000000 0.000000 -1.000000
vn 0.000000 0.000000 1.000000
vn 0.000000 0.000000 1.000000
vn -1.000000 0.000000 0.000000
vn -1.000000 0.000000 0.000000
vn 1.000000 0.000000 0.000000
vn 1.000000 -0.000000 0.000000
vn 0.000000 -1.000000 0.000000
vn 0.000000 -1.000000 0.000000
vn 0.000000 1.000000 0.000000
vn 0.000000 1.000000 0.000000
vn 0.000000 0.000000 -1.000000
vn 0.000000 0.000000 -1.000000
vn 0.000000 0.000000 1.000000
vn 0.000000 0.000000 1.000000
vn -1.000000 0.000000 0.000000
vn -1.000000 0.000000 0.000000
vn 1.000000 0.000000 0.000000
vn 1.000000 -0.000000 0.000000
vn 0.000000 -1.000000 0.000000
vn 0.000000 -1.000000 0.000000
vn 0.000000 1.000000 0.000000
vn 0.000000 1.000000 0.000000
vn 0.000000 0.000000 -1.000000
vn 0.000000 0.000000 -1.000000
vn 0.000000 0.000000 1.000000
vn 0.000000 0.000000 1.000000
vn -1.000000 0.000000 0.000000
vn -1.000000 0.000000 0.000000
vn 1.000000 0.000000 0.000000
vn 1.000000 -0.000000 0.000000
vn 0.000000 -1.000000 0.000000
vn 0.000000 -1.000000 0.000000
vn 0.000000 1.000000 0.000000
vn 0.000000 1.000000 0.000000
vn 0.000000 0.000000 -1.000000
vn 0.000000 0.000000 -1.000000
vn 0.000000 0.000000 1.000000
vn 0.000000 0.000000 1.000000
vn -1.000000 0.000000 0.000000
vn -1.000000 0.000000 0.000000
vn 1.000000 0.000000 0.000000
vn 1.000000 -0.000000 0.000000
vn 0.000000 -1.000000 0.000000
vn 0.000000 -1.000000 0.000000
vn 0.000000 1.000000 0.000000
vn 0.000000 1.000000 0.000000
vn 0.000000 0.000000 -1.000000
vn 0.000000 0.000000 -1.000000
vn 0.000000 0.000000 1.000000
vn 0.000000 0.000000 1.000000
vn -1.000000 0.000000 0.000000
vn -1.000000 0.000000 0.000000
vn 1.000000 0.000000 0.000000
vn 1.000000 -0.000000 0.000000
vn 0.000000 -1.000000 0.000000
vn 0.000000 -1.000000 0.000000
vn 0.000000 1.000000 0.000000
vn 0.000000 1.000000 0.000000
vn 0.000000 0.000000 -1.000000
vn 0.000000 0.000000 -1.000000
vn 0.000000 0.000000 1.000000
vn 0.000000 0.000000 1.000000
vn -1.000000 0.000000 0.000000
vn -1.000000 0.000000 0.000000
vn 1.000000 0.000000 0.000000
vn 1.000000 -0.000000 0.000000
vn 0.000000 -1.000000 0.000000
vn 0.000000 -1.000000 0.000000
vn 0.000000 1.000000 0.000000
vn 0.000000 1.000000 0.000000
vn 0.000000 0.000000 -1.000000
vn 0.000000 0.000000 -1.000000
vn 0.000000 0.000000 1.000000
vn 0.000000 0.000000 1.000000
vn -1.000000 0.000000 0.000000
vn -1.000000 0.000000 0.000000
vn 1.000000 0.000000 0.000000
vn 1.000000 -0.000000 0.000000
vn 0.000000 -1.000000 0.000000
vn 0.000000 -1.000000 0.000000
vn 0.000000 1.000000 0.000000
vn 0.000000 1.000000 0.000000
vn 0.000000 0.000000 -1.000000
vn 0.000000 0.000000 -1.000000
vn 0.000000 0.000000 1.000000
vn 0.000000 0.000000 1.000000
vn -1.000000 0.000000 0.000000
vn -1.000000 0.000000 0.000000
vn 1.000000 0.000000 0.000000
vn 1.000000 -0.000000 0.000000
vn 0.000000 -1.000000 0.000000
vn 0.000000 -1.000000 0.000000
vn 0.000000 1.000000 0.000000
vn 0.000000 1.000000 0.000000
vn 0.000000 0.000000 -1.000000
vn 0.000000 0.000000 -1.000000
vn 0.000000 0.000000 1.000000
vn 0.000000 0.000000 1.000000
vn -1.000000 0.000000 0.000000
vn -1.000000 0.000000 0.000000
vn 1.000000 0.000000 0.000000
vn 1.000000 -0.000000 0.000000
vn 0.000000 -1.000000 0.000000
vn 0.000000 -1.000000 0.000000
vn 0.000000 1.000000 0.000000
vn 0.000000 1.000000 0.000000
vn 0.000000 0.000000 -1.000000
vn 0.000000 0.000000 -1.000000
vn 0.000000 0.000000 1.000000
vn 0.000000 0.000000 1.000000
vn -1.000000 0.000000 0.000000
vn -1.000000 0.000000 0.000000
vn 1.000000 0.000000 0.000000
vn 1.000000 -0.000000 0.000000
vn 0.000000 -1.000000 0.000000
vn 0.000000 -1.000000 0.000000
vn 0.000000 1.000000 0.000000
vn 0.000000 1.000000 0.000000
vn 0.000000 0.000000 -1.000000
vn 0.000000 0.000000 -1.000000
vn 0.000000 0.000000 1.000000
vn 0.000000 0.000000 1.000000
vn -1.000000 0.000000 0.000000
vn -1.000000 0.000000 0.000000
vn 1.000000 0.000000 0.000000
vn 1.000000 -0.000000 0.000000
vn 0.000000 -1.000000 0.000000
vn 0.000000 -1.000000 0.000000
vn 0.000000 1.000000 0.000000
vn 0.000000 1.000000 0.000000
vn 0.000000 0.000000 -1.000000
vn 0.000000 0.000000 -1.000000
vn 0.000000 0.000000 1.000000
vn 0.000000 0.000000 1.000000
vn -1.000000 0.000000 0.000000
vn -1.000000 0.000000 0.000000
vn 1.000000 0.000000 0.000000
vn 1.000000 -0.000000 0.000000
vn 0.000000 -1.000000 0.000000
vn 0.000000 -1.000000 0.000000
vn 0.000000 1.000000 0.000000
vn 0.000000 1.000000 0.000000
vn 0.000000 0.000000 -1.000000
vn 0.000000 0.000000 -1.000000
vn 0.000000 0.000000 1.000000
vn 0.000000 0.000000 1.000000
vn -1.000000 0.000000 0.000000
vn -1.000000 0.000000 0.000000
vn 1.000000 0.000000 0.000000
vn 1.000000 -0.000000 0.000000
vn 0.000000 -1.000000 0.000000
vn 0.000000 -1.000000 0.000000
vn 0.000000 1.000000 0.000000
vn 0.000000 1.000000 0.000000
vn 0.000000 0.000000 -1.000000
vn 0.000000 0.000000 -1.000000
vn 0.000000 0.000000 1.000000
vn 0.000000 0.000000 1.000000
vn -1.000000 0.000000 0.000000
vn -1.000000 0.000000 0.000000
vn 1.000000 0.000000 0.000000
vn 1.000000 -0.000000 0.000000
vn 0.000000 -1.000000 0.000000
vn 0.000000 -1.000000 0.000000
vn 0.000000 1.000000 0.000000
vn 0.000000 1.000000 0.000000
vn 0.000000 0.000000 -1.000000
vn 0.000000 0.000000 -1.000000
vn 0.000000 0.000000 1.000000
vn 0.000000 0.000000 1.000000
g Krychle003
f 1//1 2//1 3//1
f 3//2 2//2 4//2
f 5//3 6//3 7//3
f 5//4 7//4 8//4
f 6//5 5//5 1//5
f 1//6 5//6 2//6
f 8//7 7//7 3//7
f 8//8 3//8 4//8
f 3//9 7//9 1//9
f 1//10 7//10 6//10
f 8//11 4//11 2//11
f 8//12 2//12 5//12
g Krychle006
f 9//13 10//13 11//13
f 11//14 10//14 12//14
f 13//15 14//15 15//15
f 13//16 15//16 16//16
f 14//17 13//17 9//17
f 9//18 13//18 10//18
f 16//19 15//19 11//19
f 16//20 11//20 12//20
f 11//21 15//21 9//21
f 9//22 15//22 14//22
f 16//23 12//23 10//23
f 16//24 10//24 13//24
g Krychle008
f 17//25 18//25 19//25
f 19//26 18//26 20//26
f 21//27 22//27 23//27
f 21//28 23//28 24//28
f 22//29 21//29 17//29
f 17//30 21//30 18//30
f 24//31 23//31 19//31
f 24//32 19//32 20//32
f 19//33 23//33 17//33
f 17//34 23//34 22//34
f 24//35 20//35 18//35
f 24//36 18//36 21//36
g Krychle009
f 25//37 26//37 27//37
f 27//38 26//38 28//38
f 29//39 30//39 31//39
f 29//40 31//40 32//40
f 30//41 29//41 25//41
f 25//42 29//42 26//42
f 32//43 31//43 27//43
f 32//44 27//44 28//44
f 27//45 31//45 25//45
f 25//46 31//46 30//46
f 32//47 28//47 26//47
f 32//48 26//48 29//48
g Krychle007
f 33//49 34//49 35//49
f 35//50 34//50 36//50
f 37//51 38//51 39//51
f 37//52 39//52 40//52
f 38//53 37//53 33//53
f 33//54 37//54 34//54
f 40//55 39//55 35//55
f 40//56 35//56 36//56
f 35//57 39//57 33//57
f 33//58 39//58 38//58
f 40//59 36//59 34//59
f 40//60 34//60 37//60
g Krychle
f 41//61 42//61 43//61
f 43//62 42//62 44//62
f 45//63 46//63 47//63
f 45//64 47//64 48//64
f 46//65 45//65 41//65
f 41//66 45//66 42//66
f 48//67 47//67 43//67
f 48//68 43//68 44//68
f 43//69 47//69 41//69
f 41//70 47//70 46//70
f 48//71 44//71 42//71
f 48//72 42//72 45//72
g Krychle005
f 49//73 50//73 51//73
f 51//74 50//74 52//74
f 53//75 54//75 55//75
f 53//76 55//76 56//76
f 54//77 53//77 49//77
f 49//78 53//78 50//78
f 56//79 55//79 51//79
f 56//80 51//80 52//80
f 51//81 55//81 49//81
f 49//82 55//82 54//82
f 56//83 52//83 50//83
f 56//84 50//84 53//84
g Krychle010
f 57//85 58//85 59//85
f 59//86 58//86 60//86
f 61//87 62//87 63//87
f 61//88 63//88 64//88
f 62//89 61//89 57//89
f 57//90 61//90 58//90
f 64//91 63//91 59//91
f 64//92 59//92 60//92
f 59//93 63//93 57//93
f 57//94 63//94 62//94
f 64//95 60//95 58//95
f 64//96 58//96 61//96
g Krychle004
f 65//97 66//97 67//97
f 67//98 66//98 68//98
f 69//99 70//99 71//99
f 69//100 71//100 72//100
f 70//101 69//101 65//101
f 65//102 69//102 66//102
f 72//103 71//103 67//103
f 72//104 67//104 68//104
f 67//105 71//105 65//105
f 65//106 71//106 70//106
f 72//107 68//107 66//107
f 72//108 66//108 69//108
g Krychle002
f 73//109 74//109 75//109
f 75//110 74//110 76//110
f 77//111 78//111 79//111
f 77//112 79//112 80//112
f 78//113 77//113 73//113
f 73//114 77//114 74//114
f 80//115 79//115 75//115
f 80//116 75//116 76//116
f 75//117 79//117 73//117
f 73//118 79//118 78//118
f 80//119 76//119 74//119
f 80//120 74//120 77//120
g Krychle012
f 81//121 82//121 83//121
f 83//122 82//122 84//122
f 85//123 86//123 87//123
f 85//124 87//124 88//124
f 86//125 85//125 81//125
f 81//126 85//126 82//126
f 88//127 87//127 83//127
f 88//128 83//128 84//128
f 83//129 87//129 81//129
f 81//130 87//130 86//130
f 88//131 84//131 82//131
f 88//132 82//132 85//132
g Krychle014
f 89//133 90//133 91//133
f 91//134 90//134 92//134
f 93//135 94//135 95//135
f 93//136 95//136 96//136
f 94//137 93//137 89//137
f 89//138 93//138 90//138
f 96//139 95//139 91//139
f 96//140 91//140 92//140
f 91//141 95//141 89//141
f 89//142 95//142 94//142
f 96//143 92//143 90//143
f 96//144 90//144 93//144
g Krychle011
f 97//145 98//145 99//145
f 99//146 98//146 100//146
f 101//147 102//147 103//147
f 101//148 103//148 104//148
f 102//149 101//149 97//149
f 97//150 101//150 98//150
f 104//151 103//151 99//151
f 104//152 99//152 100//152
f 99//153 103//153 97//153
f 97//154 103//154 102//154
f 104//155 100//155 98//155
f 104//156 98//156 101//156
g Krychle013
f 105//157 106//157 107//157
f 107//158 106//158 108//158
f 109//159 110//159 111//159
f 109//160 111//160 112//160
f 110//161 109//161 105//161
f 105//162 109//162 106//162
f 112//163 111//163 107//163
f 112//164 107//164 108//164
f 107//165 111//165 105//165
f 105//166 111//166 110//166
f 112//167 108//167 106//167
f 112//168 106//168 109//168
g Krychle017
f 113//169 114//169 115//169
f 115//170 114//170 116//170
f 117//171 118//171 119//171
f 117//172 119//172 120//172
f 118//173 117//173 113//173
f 113//174 117//174 114//174
f 120//175 119//175 115//175
f 120//176 115//176 116//176
f 115//177 119//177 113//177
f 113//178 119//178 118//178
f 120//179 116//179 114//179
f 120//180 114//180 117//180
g Krychle020
f 121//181 122//181 123//181
f 123//182 122//182 124//182
f 125//183 126//183 127//183
f 125//184 127//184 128//184
f 126//185 125//185 121//185
f 121//186 125//186 122//186
f 128//187 127//187 123//187
f 128//188 123//188 124//188
f 123//189 127//189 121//189
f 121//190 127//190 126//190
f 128//191 124//191 122//191
f 128//192 122//192 125//192
g Krychle019
f 129//193 130//193 131//193
f 131//194 130//194 132//194
f 133//195 134//195 135//195
f 133//196 135//196 136//196
f 134//197 133//197 129//197
f 129//198 133//198 130//198
f 136//199 135//199 131//199
f 136//200 131//200 132//200
f 131//201 135//201 129//201
f 129//202 135//202 134//202
f 136//203 132//203 130//203
f 136//204 130//204 133//204
g Krychle018
f 137//205 138//205 139//205
f 139//206 138//206 140//206
f 141//207 142//207 143//207
f 141//208 143//208 144//208
f 142//209 141//209 137//209
f 137//210 141//210 138//210
f 144//211 143//211 139//211
f 144//212 139//212 140//212
f 139//213 143//213 137//213
f 137//214 143//214 142//214
f 144//215 140//215 138//215
f 144//216 138//216 141//216
g Krychle016
f 145//217 146//217 147//217
f 147//218 146//218 148//218
f 149//219 150//219 151//219
f 149//220 151//220 152//220
f 150//221 149//221 145//221
f 145//222 149//222 146//222
f 152//223 151//223 147//223
f 152//224 147//224 148//224
f 147//225 151//225 145//225
f 145//226 151//226 150//226
f 152//227 148//227 146//227
f 152//228 146//228 149//228
g Krychle015
f 153//229 154//229 155//229
f 155//230 154//230 156//230
f 157//231 158//231 159//231
f 157//232 159//232 160//232
f 158//233 157//233 153//233
f 153//234 157//234 154//234
f 160//235 159//235 155//235
f 160//236 155//236 156//236
f 155//237 159//237 153//237
f 153//238 159//238 158//238
f 160//239 156//239 154//239
f 160//240 154//240 157//240
g Krychle001
f 161//241 162//241 163//241
f 163//242 162//242 164//242
f 165//243 166//243 167//243
f 165//244 167//244 168//244
f 166//245 165//245 161//245
f 161//246 165//246 162//246
f 168//247 167//247 163//247
f 168//248 163//248 164//248
f 163//249 167//249 161//249
f 161//250 167//250 166//250
f 168//251 164//251 162//251
f 168//252 162//252 165//252
